<?xml version="1.0" encoding="UTF-8" standalone="no"?>
<!DOCTYPE svg PUBLIC "-//W3C//DTD SVG 1.1//EN" "http://www.w3.org/Graphics/SVG/1.1/DTD/svg11.dtd">
<svg width="100%" height="100%" viewBox="0 0 512 512" version="1.1" xmlns="http://www.w3.org/2000/svg" xmlns:xlink="http://www.w3.org/1999/xlink" xml:space="preserve" xmlns:serif="http://www.serif.com/" style="fill-rule:evenodd;clip-rule:evenodd;stroke-linecap:round;stroke-linejoin:round;stroke-miterlimit:1.5;">
    <g id="main">
        <g>
            <g>
                <clipPath id="_clip1">
                    <path id="lettuce-svgrepo-com.svg" d="M512,0L260.055,0L260.055,512L512,512L512,0Z"/>
                </clipPath>
                <g clip-path="url(#_clip1)">
                    <path d="M435.844,138.169C405.315,123.605 424.601,101.503 403.399,92.122C382.196,82.741 378.812,111.879 347.501,99.082C321.49,88.63 292.62,127.618 292.62,127.618L282.227,365.986L451.637,197.976C451.637,197.976 461.073,150.388 435.844,138.169Z" style="fill:rgb(104,159,56);fill-rule:nonzero;"/>
                    <path d="M207.802,438.695C213.258,416.812 234.328,405.007 221.349,386.588C214.86,377.379 205.041,370.921 199.826,361.219C190.483,346.522 204.571,324.233 208.073,306.767C208.362,303.726 209.042,299.802 208.057,297.253C206.478,291.272 193.703,277.169 189.184,273.057C179.365,266.6 175.815,255.522 177.073,245.515C178.723,234.624 186.947,225.587 190.363,215.478C195.836,203.11 200.933,201.14 196.007,188.397C192.168,180.36 186.664,173.699 185.374,164.677C182.896,148.791 198.359,128.167 214.738,126.963C223.369,126.556 232.594,129.582 244.93,116.025C255.601,103.845 257.556,99.427 268.227,87.247C276.842,77.326 291.844,74.456 303.72,78.654C315.595,82.852 323.953,95.001 322.405,108.049C320.67,126.296 318.411,124.24 319.513,138.461C320.718,154.839 346.541,170.49 335.307,198.268C331.007,207.985 311.502,216.257 311.518,225.772C311.721,230.087 314.082,234.301 316.052,239.398C320.978,252.141 319.532,267.347 312.293,278.933C308.282,285.61 301.622,291.114 297.22,298.674C289.301,314.185 296.197,332.025 300.051,349.576C309.34,390.659 284.651,408.258 261.199,461.264C260.808,462.147 207.802,438.695 207.802,438.695Z" style="fill:rgb(139,195,74);fill-rule:nonzero;"/>
                    <path d="M260.808,462.147C273.332,443.392 285.567,427.677 307.926,424.894C319.105,423.502 330.488,426.426 341.175,423.759C358.336,420.788 365.355,395.372 375.925,381.034C377.981,378.774 380.428,375.632 382.977,374.646C388.465,371.793 407.494,371.761 413.576,372.339C423.583,373.598 434.661,370.048 441.22,362.387C448.17,353.842 449.326,341.677 454.51,332.35C459.982,319.982 458.012,314.885 470.755,309.959C479.284,307.395 487.915,306.988 495.459,301.875C508.882,293.025 513.744,267.71 503.62,254.78C498.116,248.119 491.627,238.91 491.408,225.08C491.087,209.092 495.199,204.573 497.036,188.484C498.584,175.436 490.617,162.403 479.523,156.439C468.429,150.474 453.818,152.46 445.203,162.381C432.866,175.938 435.907,176.227 424.642,184.975C411.711,195.1 382.761,186.516 369.761,213.512C365.461,223.23 372.459,243.228 365.407,249.615C362.077,252.367 357.37,253.454 352.273,255.424C339.53,260.35 329.25,271.647 325.544,284.796C323.301,292.255 323.707,300.886 321.073,309.228C314.921,325.52 297.08,332.416 281.499,341.368C244.849,362.125 230.762,384.414 207.31,437.42C207.802,438.695 260.808,462.147 260.808,462.147Z" style="fill:rgb(139,195,74);fill-rule:nonzero;"/>
                    <path d="M435.844,138.169C411.499,126.341 418.925,109.556 411.944,99.072C401.914,143.228 429.097,151.03 421.467,163.499C419.02,166.642 418.239,168.409 413.634,171.654C412.36,172.146 406.379,173.726 402.947,174.32C389.219,176.697 366.078,181.247 353.468,207.359C364.311,180.466 351.724,161.163 344.64,148.522C342.772,145.583 339.527,140.978 339.426,138.82C338.73,133.23 338.237,131.956 340.192,127.539C345.562,113.013 366.577,127.593 394.275,91.255C380.054,92.357 372.628,109.143 347.501,99.082C338.666,95.173 330.137,97.737 322.1,101.576C322.202,103.734 321.913,106.775 322.015,108.933C320.279,127.18 318.02,125.124 319.123,139.344C320.327,155.723 346.15,171.374 334.916,199.151C330.616,208.869 311.111,217.141 311.127,226.655C311.33,230.97 313.691,235.184 315.661,240.281C320.587,253.025 319.141,268.23 311.902,279.817C307.891,286.493 301.231,291.997 296.829,299.557C294.484,304.858 293.413,309.666 293.226,314.865C249.508,332.495 225.782,398.057 224.711,402.865C239.768,373.61 255.044,358.185 281.992,342.642C286.206,340.281 291.303,338.311 295.908,335.066C306.884,329.359 317.368,322.377 321.566,310.502C325.083,302.551 324.677,293.92 326.037,286.071C329.742,272.921 339.139,261.233 352.766,256.698C356.589,255.221 362.178,254.525 365.9,250.889C373.342,243.618 366.345,223.62 370.253,214.786C383.254,187.791 412.204,196.374 425.134,186.25C436.4,177.501 433.75,176.328 445.695,163.655C447.36,162.279 449.416,160.02 451.082,158.644C448.517,150.115 444.678,142.078 435.844,138.169ZM345.87,238.858C342.047,240.336 339.498,241.321 336.559,243.189C335.965,239.757 334.487,235.934 333.502,233.386L332.024,229.563C333.689,228.187 334.964,227.694 335.745,225.927C342.015,221.307 348.676,215.803 352.194,207.852C348.676,215.803 349.083,224.434 349.88,232.181C350.373,233.456 350.475,235.613 349.693,237.38L345.87,238.858Z" style="fill:rgb(85,139,47);fill-rule:nonzero;"/>
                    <path d="M240.737,366.644C240.636,364.486 240.143,363.212 240.041,361.054C239.635,352.423 238.345,343.401 237.054,334.38C235.764,325.358 234.865,315.452 233.966,305.547C233.066,295.642 232.167,285.737 232.151,276.222C232.135,266.708 231.236,256.803 232.104,247.679C232.088,238.165 233.839,229.432 235.199,221.583C236.559,213.734 239.194,205.392 241.046,198.817C243.29,191.359 246.026,185.175 248.371,179.874C249.833,174.182 253.554,170.547 255.509,166.13C259.91,158.57 261.865,154.153 261.865,154.153C261.865,154.153 259.91,158.57 257.276,166.912C255.712,170.445 253.367,175.746 252.296,180.554C250.834,186.245 248.981,192.82 248.012,199.786C247.043,206.752 245.683,214.601 245.206,222.841C244.729,231.081 244.253,239.321 245.543,248.343C245.95,256.974 247.24,265.996 248.53,275.018C249.82,284.04 251.994,293.452 254.167,302.865C256.341,312.278 258.514,321.691 261.079,330.22C262.064,332.769 262.166,334.926 263.151,337.475C260.704,340.618 256.982,344.253 254.536,347.396L252.972,350.93C251.307,352.306 250.134,354.956 249.352,356.723C248.18,359.373 246.124,361.633 244.951,364.283C242.793,364.385 242.012,366.151 240.737,366.644ZM251.974,458.238C251.974,458.238 253.928,453.821 256.563,445.479C257.633,440.671 259.69,438.412 262.527,434.386C264.091,430.852 267.32,425.942 271.823,420.54C273.879,418.281 276.326,415.138 278.382,412.878C280.438,410.619 282.885,407.476 286.215,404.724C291.601,399.713 298.262,394.209 304.923,388.705C311.584,383.201 319.128,378.088 326.672,372.975C334.216,367.862 342.151,361.865 350.086,355.869C358.021,349.872 365.956,343.876 373.008,337.488C380.06,331.101 387.995,325.104 394.163,318.326C401.214,311.939 406.499,304.769 411.393,298.484C416.287,292.198 420.688,284.638 424.308,278.845C428.318,272.168 430.664,266.868 433.4,260.684C436.628,255.774 436.816,250.575 438.77,246.158C441.405,237.816 443.359,233.399 443.359,233.399C443.359,233.399 441.405,237.816 437.003,245.376C435.44,248.91 433.095,254.21 430.257,258.237C427.028,263.146 423.409,268.94 418.906,274.342C414.403,279.744 409.509,286.03 403.731,291.925C397.954,297.82 392.177,303.714 384.633,308.827C377.972,314.331 370.428,319.444 362.883,324.558C355.339,329.671 346.912,334.393 338.484,339.115C330.056,343.837 321.629,348.559 313.592,352.398C305.165,357.12 297.128,360.959 288.7,365.681C280.273,370.404 272.728,375.517 266.068,381.021L256.077,389.277C252.746,392.028 249.416,394.78 246.969,397.923C241.192,403.818 235.805,408.83 232.186,414.623C227.683,420.025 224.063,425.818 222.5,429.352L216.636,442.603L251.974,458.238Z" style="fill:rgb(220,237,200);fill-rule:nonzero;"/>
                </g>
                <clipPath id="_clip2">
                    <path id="lettuce-svgrepo-com.svg1" serif:id="lettuce-svgrepo-com.svg" d="M260.055,6L0,6L0,518L260.055,518L260.055,6Z"/>
                </clipPath>
                <g clip-path="url(#_clip2)">
                    <path d="M172.579,92.286C141.276,105.101 137.875,75.965 116.678,85.358C95.481,94.752 114.78,116.842 84.259,131.424C59.037,143.657 68.5,191.24 68.5,191.24L238.006,359.153L227.477,120.791C227.477,120.791 198.584,81.819 172.579,92.286Z" style="fill:rgb(104,159,56);fill-rule:nonzero;"/>
                    <path d="M241.817,463.129C229.282,444.381 234.702,420.846 212.342,418.075C201.161,416.69 189.78,419.62 179.091,416.96C161.929,413.998 154.895,388.586 144.317,374.254C142.26,371.996 139.811,368.854 137.262,367.871C131.772,365.02 112.743,365 106.661,365.581C95.28,368.512 84.692,363.694 78.128,356.036C71.174,347.495 70.01,335.331 64.821,326.007C59.342,313.642 61.309,308.544 48.563,303.625C40.033,301.066 31.401,300.664 23.854,295.555C10.426,286.713 5.549,261.401 15.666,248.465C21.167,241.801 29.607,237.004 27.862,218.758C26.015,202.669 24.059,198.253 22.212,182.165C20.657,169.118 28.617,156.081 39.707,150.11C50.797,144.139 65.41,146.116 74.031,156.033C86.375,169.582 83.334,169.873 94.604,178.615C107.541,188.732 136.486,180.132 149.502,207.12C153.807,216.835 146.821,236.837 153.876,243.221C157.208,245.971 161.915,247.055 167.014,249.022C179.76,253.94 190.046,265.232 193.759,278.379C196.007,285.836 195.605,294.467 198.245,302.808C204.406,319.097 222.251,325.982 237.837,334.925C274.499,355.662 270.935,385.77 294.418,438.763C294.809,439.646 241.817,463.129 241.817,463.129Z" style="fill:rgb(139,195,74);fill-rule:nonzero;"/>
                    <path d="M294.809,439.646C289.34,417.767 285.928,398.146 298.896,379.719C305.38,370.506 315.195,364.043 320.405,354.338C329.739,339.636 315.639,317.354 312.127,299.891C311.836,296.85 311.153,292.926 312.137,290.377C313.713,284.395 326.48,270.285 330.996,266.17C338.654,259.606 343.472,249.018 342.208,239.012C340.552,228.123 332.323,219.09 328.901,208.983C323.421,196.618 318.323,194.651 323.241,181.905C327.075,173.866 332.575,167.202 333.86,158.18C336.33,142.292 320.855,121.677 304.475,120.482C295.844,120.08 284.664,118.695 274.277,109.562C262.223,99.053 261.641,92.971 250.963,80.797C242.342,70.881 227.338,68.02 215.465,72.224C203.592,76.429 195.241,88.583 196.797,101.63C198.542,119.876 200.801,117.819 199.706,132.04C198.511,148.419 172.697,164.085 183.947,191.856C188.252,201.571 207.762,209.832 207.752,219.346C207.551,223.662 205.193,227.877 203.225,232.975C198.307,245.721 199.762,260.926 207.007,272.508C211.022,279.183 217.686,284.683 222.091,292.24C230.019,307.747 223.134,325.591 219.289,343.144C210.024,384.233 217.059,409.645 240.542,462.637C241.817,463.129 294.809,439.646 294.809,439.646Z" style="fill:rgb(139,195,74);fill-rule:nonzero;"/>
                    <path d="M172.579,92.286C147.458,102.361 140.022,85.58 127.567,83.703C153.519,120.808 177.567,105.925 181.671,119.956C182.354,123.88 183.136,125.647 182.444,131.237C181.952,132.511 179.101,138.001 177.235,140.942C169.767,152.704 157.582,172.896 168.441,199.784C155.816,173.679 133.064,170.025 118.943,166.773C115.51,166.181 109.92,165.488 108.254,164.113C103.648,160.871 102.373,160.379 100.416,155.963C93.271,142.223 118.191,136.463 109.903,91.531C101.161,102.801 108.597,119.582 84.259,131.424C75.427,135.338 71.592,143.377 69.033,151.907C70.699,153.282 72.756,155.541 74.422,156.916C86.766,170.465 83.725,170.756 94.996,179.498C107.932,189.615 136.877,181.015 149.893,208.003C154.198,217.718 147.213,237.721 154.268,244.104C157.6,246.854 162.307,247.938 167.405,249.905C180.151,254.824 190.438,266.115 194.151,279.262C196.399,286.719 195.997,295.351 198.636,303.691C200.984,308.99 203.825,313.015 207.548,316.648C191.217,360.867 223.813,422.501 226.653,426.526C215.112,395.714 213.959,374.036 220.564,343.636C221.648,338.929 223.615,333.831 224.308,328.241C227.46,316.277 229.337,303.822 223.366,292.732C219.843,284.783 213.18,279.283 208.282,273C201.036,261.418 198.698,246.604 204.5,233.467C205.975,229.643 209.217,225.037 209.027,219.838C208.646,209.44 189.135,201.18 185.222,192.348C173.972,164.577 199.786,148.911 200.981,132.532C202.075,118.311 199.426,119.485 198.071,102.122C198.172,99.964 197.881,96.923 197.981,94.765C189.942,90.931 181.411,88.372 172.579,92.286ZM186.656,226.582C185.18,230.405 184.196,232.955 183.604,236.387C180.664,234.52 176.84,233.045 174.291,232.061L170.467,230.586C170.567,228.428 171.059,227.153 170.276,225.387C171.069,217.639 171.471,209.008 167.949,201.059C171.471,209.008 178.135,214.508 184.408,219.125C185.682,219.616 187.348,220.991 188.131,222.758L186.656,226.582Z" style="fill:rgb(85,139,47);fill-rule:nonzero;"/>
                    <path d="M210.606,390.315C208.94,388.94 207.666,388.448 206,387.073C199.336,381.573 191.789,376.464 184.242,371.355C176.695,366.246 168.756,360.254 160.818,354.262C152.879,348.27 144.941,342.279 137.885,335.895C130.83,329.512 122.891,323.52 116.719,316.745C109.664,310.362 104.375,303.196 99.478,296.913C94.58,290.63 90.175,283.072 86.552,277.281C82.537,270.607 79.798,264.425 77.449,259.125C74.218,254.218 74.027,249.019 72.071,244.603C69.431,236.262 67.474,231.846 67.474,231.846C67.474,231.846 69.431,236.262 73.837,243.82C75.402,247.353 77.751,252.652 80.591,256.677C83.822,261.585 87.445,267.376 91.951,272.775C96.458,278.175 101.355,284.458 107.136,290.349C112.916,296.241 118.697,302.132 126.244,307.241C132.908,312.741 140.455,317.85 148.002,322.959C155.549,328.067 163.98,332.785 172.41,337.502C180.84,342.22 189.271,346.937 197.31,350.771C199.859,351.755 201.525,353.13 204.074,354.113C204.756,358.038 204.947,363.236 205.629,367.161L207.195,370.693C207.094,372.851 208.268,375.501 209.051,377.267C210.225,379.917 210.516,382.958 211.69,385.608C210.315,387.274 211.098,389.04 210.606,390.315ZM285.977,443.56C285.977,443.56 284.02,439.144 279.614,431.586C276.774,427.562 276.483,424.521 275.41,419.713C273.844,416.18 272.379,410.49 271.406,403.524C271.115,400.483 270.432,396.559 270.141,393.518C269.851,390.477 269.168,386.553 269.369,382.237C269.279,374.881 269.681,366.25 270.083,357.618C270.484,348.987 271.769,339.965 273.054,330.942C274.339,321.92 275.233,312.014 276.126,302.108C277.02,292.202 277.914,282.296 277.924,272.782C277.934,263.268 278.828,253.362 277.955,244.239C277.965,234.724 276.209,225.993 274.845,218.144C273.48,210.296 270.841,201.956 268.984,195.382C266.736,187.925 264.388,182.625 261.648,176.443C260.183,170.752 256.46,167.119 254.503,162.703C250.097,155.146 248.141,150.73 248.141,150.73C248.141,150.73 250.097,155.146 252.737,163.486C254.302,167.019 256.651,172.318 257.724,177.125C259.189,182.816 261.046,189.39 262.019,196.355C262.992,203.32 264.357,211.169 264.838,219.408C265.32,227.648 265.801,235.888 264.516,244.911C264.115,253.542 262.83,262.564 261.545,271.587C260.26,280.61 258.092,290.024 255.923,299.438C253.755,308.852 251.587,318.265 249.027,326.796C246.859,336.21 244.3,344.741 242.132,354.155C239.963,363.569 238.678,372.591 238.277,381.223L237.674,394.169C237.473,398.485 237.272,402.801 237.955,406.725C238.436,414.965 238.526,422.321 240.383,428.895C241.356,435.86 243.212,442.434 244.778,445.967L250.649,459.215L285.977,443.56Z" style="fill:rgb(220,237,200);fill-rule:nonzero;"/>
                </g>
            </g>
            <g id="fishstick">
                <path d="M226.678,87.596C228.09,86.749 235.802,87.596 238.018,87.596C242.127,87.596 248.796,88.382 252.383,86.588C254.494,85.532 262.819,86.823 265.739,86.336C272.334,85.237 279.046,84.219 284.891,81.296C285.781,80.851 297.045,81.605 297.24,81.8C297.985,82.546 304.176,82.526 305.304,82.808C310.485,84.103 316.224,87.932 319.668,91.376C320.892,92.6 320.689,95.435 321.432,96.92C321.73,97.516 322.927,107.195 322.44,108.765C321.259,112.571 321.629,119.707 321.493,120.933C320.641,128.599 322.15,132.361 322.15,140.12C322.15,164.227 323.653,188.693 323.653,212.966C323.653,214.164 323.931,224.798 324.581,226.534C325.654,229.393 325.233,243.299 324.412,246.54C322.926,252.409 324.563,262.737 323.173,265.516C320,271.864 321.867,279.395 320.172,286.176C319.206,290.042 320.639,294.596 319.92,298.525C317.039,314.271 319.416,331.171 319.416,346.91C319.416,356.952 317.567,376.789 319.92,385.466C322.976,396.734 317.698,414.056 314.376,424.023C313.748,425.908 314.575,428.168 314.124,430.071C311.892,439.49 314.935,450.011 312.612,459.304C312.204,460.935 312.6,463.359 311.856,464.848C310.613,467.334 309.286,469.282 308.328,472.156C307.594,474.357 306.522,475.434 304.037,476.677C301.281,478.056 297.338,477.667 294.215,478.708C291.884,479.486 286.956,478.508 285.143,479.716C283.099,481.079 280.42,480.141 278.087,480.724C271.333,482.413 268.223,480.993 261.455,480.472C256.204,480.068 253.082,480.004 249.107,477.448C248.194,476.862 239.51,477.448 237.514,477.448C227.456,477.448 208.726,481.777 199.966,475.936C196.081,473.347 194.612,467.438 193.161,463.084C192.034,459.701 190.402,456.906 188.841,453.784C187.166,450.434 189.005,444.292 189.129,442.168C189.434,436.976 190.684,430.832 190.684,425.643C190.684,419.685 188.102,413.789 189.381,407.391C189.878,404.909 189.223,401.956 189.885,399.579C192.237,391.136 191.901,383.438 191.901,374.378C191.901,368.762 192.153,363.05 192.153,357.494C192.153,355.875 191.461,352.326 192.153,350.942C193.094,349.06 192.333,346.038 193.413,344.138C196.49,338.725 194.819,334.374 196.689,330.025C200.674,320.763 198.705,307.836 198.705,297.517C198.705,290.917 197.697,283.957 197.697,277.608C197.697,275.519 198.644,270.292 197.697,268.536C196.609,266.517 197.515,263.772 196.941,261.48C195.988,257.665 194.636,246.854 194.636,242.579C194.636,232.508 195.933,222.783 195.933,212.843C195.933,206.007 191.206,188.277 193.917,182.854C196.247,178.194 197.859,163.086 196.437,157.402C195.63,154.174 194.227,151.446 193.665,148.077C192.431,140.672 193.997,136.989 193.997,129.754C193.997,126.296 193.723,116.902 195.255,114.087C196.316,112.138 195.865,105.831 196.185,104.228C196.873,100.791 199.37,96.256 201.982,93.644C202.929,92.697 204.547,92.843 205.51,91.88C206.406,90.984 209.134,91.202 210.298,90.62C211.957,89.79 214.85,89.056 216.826,88.398C220.779,87.08 224.656,88.81 226.678,87.596Z" style="fill:rgb(224,150,20);"/>
                <path d="M311.918,85.566C314.902,87.253 317.671,89.379 319.668,91.376C320.892,92.6 320.689,95.435 321.432,96.92C321.73,97.516 322.927,107.195 322.44,108.765C321.259,112.571 321.629,119.707 321.493,120.933C320.641,128.599 322.15,132.361 322.15,140.12C322.15,164.227 323.653,188.693 323.653,212.966C323.653,214.164 323.931,224.798 324.581,226.534C325.654,229.393 325.233,243.299 324.412,246.54C322.926,252.409 324.563,262.737 323.173,265.516C320,271.864 321.867,279.395 320.172,286.176C319.206,290.042 320.639,294.596 319.92,298.525C317.039,314.271 319.416,331.171 319.416,346.91C319.416,356.952 317.567,376.789 319.92,385.466C322.976,396.734 317.698,414.056 314.376,424.023C313.748,425.908 314.575,428.168 314.124,430.071C311.892,439.49 314.935,450.011 312.612,459.304C312.204,460.935 312.6,463.359 311.856,464.848C310.613,467.334 309.286,469.282 308.328,472.156C307.594,474.357 306.522,475.434 304.037,476.677C301.281,478.056 297.338,477.667 294.215,478.708C291.884,479.486 286.956,478.508 285.143,479.716C283.099,481.079 280.42,480.141 278.087,480.724C271.333,482.413 268.223,480.993 261.455,480.472C256.204,480.068 253.082,480.004 249.107,477.448C248.194,476.862 239.51,477.448 237.514,477.448C227.456,477.448 208.726,481.777 199.966,475.936C198.547,474.991 197.451,473.603 196.56,472.009C215.545,467.113 242.253,471.005 260.531,471.005C265.847,471.005 272.804,472.146 277.857,470.69C281.049,469.77 285.735,469.587 288.22,468.344C290.15,467.379 293.372,465.175 295.346,464.188C298.053,462.835 300.736,450.877 301.797,447.694C302.338,446.071 301.39,443.469 302.112,442.024C304.29,437.67 303.372,429.135 303.372,424.069C303.372,410.429 305.167,395.491 307.303,382.324C310.17,364.653 310.879,358.98 309.093,342.936C308.839,340.656 311.287,331.46 310.277,329.441C308.481,325.848 310.24,313.82 309.357,309.406C307.526,300.251 306.837,290.628 306.837,281.056C306.837,278.468 305.686,272.906 306.837,270.661C309.767,264.948 307.63,255.783 309.987,249.24C311.055,246.278 311.193,223.16 311.361,219.365C311.65,212.806 316.385,204.053 312.507,184.664C311.821,181.231 313.194,177.386 312.507,173.954C310.439,163.611 309.181,138.286 310.895,126.804C313.24,111.082 312.751,98.533 311.918,85.566Z" style="fill:rgb(173,108,2);"/>
                <path d="M226.678,87.596C224.656,88.81 220.779,87.08 216.826,88.398C214.85,89.056 211.957,89.79 210.298,90.62C209.134,91.202 206.406,90.984 205.51,91.88C204.547,92.843 202.929,92.697 201.982,93.644C199.37,96.256 196.873,100.791 196.185,104.228C195.865,105.831 196.316,112.138 195.255,114.087C193.723,116.902 193.997,126.296 193.997,129.754C193.997,136.989 192.431,140.672 193.665,148.077C194.227,151.446 195.63,154.174 196.437,157.402C197.859,163.086 196.247,178.194 193.917,182.854C191.206,188.277 195.933,206.007 195.933,212.843C195.933,222.783 194.636,232.508 194.636,242.579C194.636,246.854 195.988,257.665 196.941,261.48C197.515,263.772 196.609,266.517 197.697,268.536C198.644,270.292 197.697,275.519 197.697,277.608C197.697,283.957 198.705,290.917 198.705,297.517C198.705,307.836 200.674,320.763 196.689,330.025C194.819,334.374 196.49,338.725 193.413,344.138C192.333,346.038 193.094,349.06 192.153,350.942C191.461,352.326 192.153,355.875 192.153,357.494C192.153,363.05 191.901,368.762 191.901,374.378C191.901,383.438 192.237,391.136 189.885,399.579C189.223,401.956 189.878,404.909 189.381,407.391C188.102,413.789 190.684,419.685 190.684,425.643C190.684,430.832 191.348,436.618 189.528,441.49C188.407,444.491 188.84,450.036 189.718,453.784C190.513,457.183 192.034,459.701 193.161,463.084C194.612,467.438 196.081,473.347 199.966,475.936C208.726,481.777 227.456,477.448 237.514,477.448C239.51,477.448 248.194,476.862 249.107,477.448C253.082,480.004 256.204,480.068 261.455,480.472C268.223,480.993 271.333,482.413 278.087,480.724C280.42,480.141 283.099,481.079 285.143,479.716C286.956,478.508 291.884,479.486 294.215,478.708C297.338,477.667 301.281,478.056 304.037,476.677C306.522,475.434 307.594,474.357 308.328,472.156C309.286,469.282 310.613,467.334 311.856,464.848C312.6,463.359 312.204,460.935 312.612,459.304C314.935,450.011 311.892,439.49 314.124,430.071C314.575,428.168 313.748,425.908 314.376,424.023C317.698,414.056 322.976,396.734 319.92,385.466C317.567,376.789 319.416,356.952 319.416,346.91C319.416,331.171 317.039,314.271 319.92,298.525C320.639,294.596 319.206,290.042 320.172,286.176C321.867,279.395 320,271.864 323.173,265.516C324.563,262.737 322.926,252.409 324.412,246.54C325.233,243.299 325.654,229.393 324.581,226.534C323.931,224.798 323.653,214.164 323.653,212.966C323.653,188.693 322.15,164.227 322.15,140.12C322.15,132.361 320.641,128.599 321.493,120.933C321.629,119.707 321.259,112.571 322.44,108.765C322.927,107.195 321.73,97.516 321.432,96.92C320.689,95.435 320.892,92.6 319.668,91.376C316.224,87.932 310.485,84.103 305.304,82.808C304.176,82.526 297.985,82.546 297.24,81.8C297.045,81.605 285.781,80.851 284.891,81.296C279.046,84.219 272.334,85.237 265.739,86.336C262.819,86.823 254.494,85.532 252.383,86.588C248.796,88.382 242.127,87.596 238.018,87.596C235.802,87.596 228.09,86.749 226.678,87.596Z" style="fill:none;stroke:black;stroke-width:4.17px;"/>
                <path d="M297.54,88.637C297.54,95.428 301.962,102.568 303.084,109.302C305.854,125.919 302.133,146.451 299.808,162.727C298.951,168.726 300.602,175.683 300.602,181.142C300.602,190.18 299.814,200.076 300.816,209.096C301.786,217.831 303.411,233.884 301.824,242.612C300.11,252.038 298.359,261.229 296.28,270.585C295.828,272.619 296.631,275.145 296.028,277.137C294.376,282.591 295.534,288.423 294.516,294.021C292.895,302.935 293.508,312.332 293.508,321.49C293.508,328.618 290.457,338.266 292.248,345.43C293.732,351.368 294.012,358.169 294.012,364.331C294.012,365.002 293.508,371.639 294.264,372.395C296.433,374.564 295.272,382.935 295.272,386.255C295.272,399.77 295.524,413.252 295.524,426.828C295.524,433.283 294.334,448.7 293.033,454.24C292.247,457.586 290.827,461.943 285.736,461.768C279.594,461.557 273.382,463.173 267.34,464.036C262.935,464.666 259.929,463.149 256,465.113C254.184,466.022 247.519,464.821 245.529,465.219C242.475,465.83 235.37,465.533 232.213,464.675C230.795,464.289 221.326,464.503 218.451,463.784C216.31,463.249 210.634,463.035 208.692,463.52C206.911,463.965 203.461,464.629 201.449,464.629" style="fill:none;stroke:black;stroke-width:4.17px;"/>
                <g>
                    <path d="M217.232,113.434C213.358,118.599 213.306,124.872 216.728,130.067C218.114,132.172 219.248,132.375 219.248,135.107" style="fill:none;stroke:black;stroke-width:5px;"/>
                    <path d="M256.796,132.335C258.207,134.685 266.657,142.667 268.389,142.667" style="fill:none;stroke:black;stroke-width:5px;"/>
                    <path d="M250.244,158.543C249.802,159.87 248.141,160.229 247.472,161.567C246.893,162.726 247.985,164.645 247.472,165.851C246.628,167.834 244.652,171.947 243.188,173.411" style="fill:none;stroke:black;stroke-width:5px;"/>
                    <path d="M233.864,204.66C233.864,207.242 239.276,208.547 240.164,211.212C241.03,213.811 240.668,217.112 240.668,220.032" style="fill:none;stroke:black;stroke-width:5px;"/>
                    <path d="M269.397,233.641C267.015,236.022 266.065,238.54 264.609,241.453" style="fill:none;stroke:black;stroke-width:5px;"/>
                    <path d="M242.18,264.889C242.756,266.617 245.652,267.436 246.716,269.173C247.813,270.965 246.716,276.469 246.716,278.75" style="fill:none;stroke:black;stroke-width:5px;"/>
                    <path d="M218.492,244.225C218.492,245.655 218.672,254.377 218.492,254.557C216.526,256.523 214.46,256.223 214.46,259.597" style="fill:none;stroke:black;stroke-width:5px;"/>
                    <path d="M216.476,194.076C216.476,190.403 217.484,187.219 217.484,183.492" style="fill:none;stroke:black;stroke-width:5px;"/>
                    <path d="M274.185,181.224C273.432,182.728 273.982,184.43 273.681,186.012C273.314,187.937 270.663,192.072 271.665,194.076C272.925,196.596 273.681,196.352 273.681,200.376" style="fill:none;stroke:black;stroke-width:5px;"/>
                    <path d="M264.609,103.858C264.609,110.583 270.004,108.71 273.177,113.434C274.049,114.732 272.784,118.152 274.437,118.978" style="fill:none;stroke:black;stroke-width:5px;"/>
                    <path d="M268.893,334.191C267.112,337.751 264.934,347.112 268.137,350.571" style="fill:none;stroke:black;stroke-width:5px;"/>
                    <path d="M271.665,287.57C270.403,287.57 270.181,290.146 270.657,291.098C272.025,293.835 271.048,301.539 272.169,305.462" style="fill:none;stroke:black;stroke-width:5px;"/>
                    <path d="M220.508,300.17C220.508,302.045 229.042,313.711 230.588,316.802" style="fill:none;stroke:black;stroke-width:5px;"/>
                    <path d="M229.832,334.191C226.27,337.753 228.624,342.403 226.808,346.035" style="fill:none;stroke:black;stroke-width:5px;"/>
                    <path d="M210.175,355.359C212.842,358.026 213.956,366.109 213.956,370.227" style="fill:none;stroke:black;stroke-width:5px;"/>
                    <path d="M249.992,366.951C249.042,367.521 247.77,367.914 246.968,368.715C244.709,370.974 247.179,380.377 241.928,382.324" style="fill:none;stroke:black;stroke-width:5px;"/>
                    <path d="M268.389,391.396C268.937,390.848 270.621,391.144 271.413,391.144C275.167,391.144 275.438,390.883 277.713,393.916C278.084,394.411 279.266,395.006 279.477,395.428C279.792,396.059 279.325,396.788 279.981,397.444" style="fill:none;stroke:black;stroke-width:5px;"/>
                    <path d="M223.784,389.884C220.183,391.684 222.946,401.219 222.02,403.996C221.574,405.332 220.438,406.082 219.5,407.02" style="fill:none;stroke:black;stroke-width:5px;"/>
                    <path d="M246.716,413.32C250.198,413.32 252.973,414.537 255.284,416.848" style="fill:none;stroke:black;stroke-width:5px;"/>
                    <path d="M270.909,437.261C269.671,439.737 266.373,441.191 266.373,444.317" style="fill:none;stroke:black;stroke-width:5px;"/>
                    <path d="M222.272,431.465C222.272,435.802 224.54,440.168 224.54,444.317" style="fill:none;stroke:black;stroke-width:5px;"/>
                </g>
            </g>
            <g>
                <g>
                    <path d="M255.676,3.083C255.676,3.083 221.574,9.625 205.996,44.945C197.331,64.59 206.919,74.249 206.919,74.249C206.919,74.249 184.244,75.483 175.523,99.366C167.697,120.797 174.004,137.104 198.547,147.384C244.72,166.725 291.136,161.974 314.591,155.941C338.046,149.908 348.989,136.423 348.081,123.744C346.788,105.707 334.045,102.321 334.045,102.321C334.045,102.321 333.675,96.534 325.426,89.824C317.177,83.113 308.866,81.821 308.866,81.821C308.866,81.821 308.435,73.325 303.941,67.846C299.447,62.367 294.484,57.56 272.421,54.426C255.036,51.955 249.376,38.24 249.089,23.091C248.895,12.814 255.676,3.083 255.676,3.083Z" style="fill:rgb(248,242,230);stroke:black;stroke-width:4.17px;"/>
                    <path d="M339.984,105.739C329.562,105.785 322.738,106.105 311.219,112.091C297.642,119.145 287.22,125.832 276.289,127.27C263.112,129.003 248.634,127.596 237.184,127.419C225.734,127.241 201.92,126.447 196.714,124.356C191.508,122.264 207.75,116.025 213.847,116.912C219.944,117.798 236.251,123.08 247.204,123.186C258.158,123.292 280.6,120.004 292.826,115.328C305.051,110.653 315.269,102.486 332.695,101.804C333.11,101.788 333.531,101.767 333.956,101.743C334.032,102.118 334.045,102.321 334.045,102.321C334.045,102.321 336.863,103.07 339.984,105.739Z" style="fill:rgb(255,252,246);"/>
                    <path d="M254.938,4.234C253.185,7.102 248.935,14.924 249.089,23.091C249.376,38.24 255.036,51.955 272.421,54.426C284.505,56.142 291.459,58.361 296.016,60.917C283.058,61.489 268.286,60.446 258.223,56.892C247.384,53.063 240.192,42.282 240.527,30.093C240.857,18.107 246.531,11.136 254.938,4.234Z" style="fill:rgb(255,252,246);"/>
                    <path d="M323.529,88.372C317.365,86.878 308.14,84.656 294.94,87.337C278.859,90.604 277.734,95.541 261.654,95.759C245.573,95.977 228.948,85.105 222.287,83.181C215.626,81.257 212.414,78.353 204.918,76.792C203.267,76.449 202.051,75.929 201.138,75.334C204.59,74.375 206.919,74.249 206.919,74.249C206.919,74.249 205.383,72.701 204.096,69.585C208.202,69.222 212.987,69.154 215.554,70.386C220.962,72.981 233.703,79.769 241.453,82.891C249.203,86.012 260.946,86.012 266.971,85.468C272.997,84.923 287.798,82.752 287.798,82.752C287.798,82.752 302.347,81.061 308.83,81.343C308.857,81.65 308.866,81.821 308.866,81.821C308.866,81.821 315.95,82.923 323.529,88.372Z" style="fill:rgb(255,252,246);"/>
                    <path d="M207.222,42.3C207.222,42.3 215.094,69.677 231.449,76.807C248.956,84.44 261.178,84.225 275.154,82.158C284.508,80.774 289.302,82.694 289.302,82.694C289.302,82.694 259.951,91.12 249.317,88.325C238.682,85.53 232.798,80.071 227.764,78.121C222.884,76.231 210.992,73.833 206.313,73.527C204.349,70.954 198.697,61.492 205.996,44.945C206.393,44.045 206.802,43.163 207.222,42.3Z" style="fill:rgb(196,192,182);"/>
                    <path d="M348.065,126.868C347.115,138.58 336.127,150.402 314.591,155.941C292.092,161.728 248.465,166.336 204.192,149.63C208.06,148.637 211.977,148.023 215.447,148.036C230.18,148.091 265.74,145.211 279.144,143.162C292.547,141.112 324.783,121.782 335.806,120.619C343.086,119.851 345.582,122.78 348.065,126.868Z" style="fill:rgb(196,192,182);"/>
                    <path d="M177.049,131.429C185.857,123.155 197.863,113.362 211.071,112.532C225.412,111.631 233.891,121.453 254.44,121.505C263.801,121.529 300.413,112.034 300.413,112.034C300.413,112.034 282.46,124.483 262.567,126.213C235.815,128.539 228.185,120.057 217.995,120.342C204.44,120.72 197.225,123.748 188.528,130.755C185.353,133.313 183.106,135.203 181.426,136.681C179.72,135.014 178.263,133.263 177.049,131.429Z" style="fill:rgb(196,192,182);"/>
                    <path d="M227.453,17.042C226.373,22.542 224.676,31.194 226.414,40.084C229.449,55.609 240.206,63.901 240.206,63.901C240.206,63.901 228.914,58.71 224.365,47.174C221.228,39.22 220.709,29.781 220.857,22.964C223.024,20.766 225.24,18.8 227.453,17.042Z" style="fill:rgb(196,192,182);"/>
                    <path d="M255.676,3.083C255.676,3.083 221.574,9.625 205.996,44.945C197.331,64.59 206.919,74.249 206.919,74.249C206.919,74.249 184.244,75.483 175.523,99.366C167.697,120.797 174.004,137.104 198.547,147.384C244.72,166.725 291.136,161.974 314.591,155.941C338.046,149.908 348.989,136.423 348.081,123.744C346.788,105.707 334.045,102.321 334.045,102.321C334.045,102.321 333.675,96.534 325.426,89.824C317.177,83.113 308.866,81.821 308.866,81.821C308.866,81.821 308.435,73.325 303.941,67.846C299.447,62.367 294.484,57.56 272.421,54.426C255.036,51.955 249.376,38.24 249.089,23.091C248.895,12.814 255.676,3.083 255.676,3.083Z" style="fill:none;stroke:black;stroke-width:4.17px;"/>
                </g>
                <g>
                    <path d="M272.621,70.525C272.826,69.121 273.178,69.304 275.198,68.414C277.219,67.524 275.771,68.574 276.764,70.08C277.757,71.587 276.627,72.614 275.463,72.237C274.298,71.861 274.538,72.34 273.374,72.443C272.21,72.545 272.415,71.929 272.621,70.525Z" style="fill:rgb(86,125,2);"/>
                    <path d="M266.466,139.316C266.671,137.912 266.524,139.01 268.576,138.195C269.829,137.698 269.56,138.112 270.085,139.151C270.899,140.761 270.359,141.311 269.195,140.934C268.031,140.557 268.477,141.055 267.312,141.158C266.148,141.261 266.26,140.719 266.466,139.316Z" style="fill:rgb(86,125,2);"/>
                    <path d="M211.948,127.378C212.154,125.974 212.358,127.591 214.563,127.714C215.633,127.773 214.733,128.165 215.726,129.672C216.719,131.179 215.808,131.256 214.644,130.88C213.48,130.503 213.793,130.361 212.629,130.464C211.465,130.567 211.743,128.782 211.948,127.378Z" style="fill:rgb(86,125,2);"/>
                    <path d="M306.373,124.612C306.578,123.208 306.528,121.207 308.427,122.332C309.512,122.975 310.636,122.032 309.787,123.624C309.602,123.972 310.454,125.859 309.29,125.482C308.126,125.106 308.795,125.099 307.631,125.202C306.467,125.304 306.168,126.016 306.373,124.612Z" style="fill:rgb(86,125,2);"/>
                    <path d="M275.95,97.244C276.155,95.84 275.924,97.205 277.944,96.315C279.964,95.424 281.641,97.939 279.838,98.026C279.306,98.051 278.968,99.991 277.804,99.614C276.64,99.238 277.972,98.67 276.808,98.773C275.644,98.875 275.744,98.648 275.95,97.244Z" style="fill:rgb(86,125,2);"/>
                    <path d="M228.378,84.457C227.262,85.147 227.651,85.418 226.553,84.477C225.957,83.966 225.76,83.903 226.173,82.158C226.449,80.996 227.652,80.29 228.142,81.394C228.632,82.498 228.385,82.016 228.502,83.171C228.543,83.582 229.494,83.768 228.378,84.457Z" style="fill:rgb(86,125,2);"/>
                    <path d="M242.493,105.966C243.142,104.456 242.521,105.06 244.857,105.329C245.892,105.447 247.093,105.719 245.727,107.214C245.192,107.8 245.999,108.935 244.76,108.491C243.522,108.047 244.016,107.62 242.777,107.741C241.539,107.862 242.275,106.474 242.493,105.966Z" style="fill:rgb(86,125,2);"/>
                    <path d="M310.794,104.877C311,103.474 311.352,103.656 313.372,102.766C315.392,101.876 313.944,102.926 314.937,104.432C315.93,105.939 314.8,106.966 313.636,106.589C312.472,106.213 312.712,106.692 311.548,106.795C310.383,106.898 310.589,106.281 310.794,104.877Z" style="fill:rgb(86,125,2);"/>
                    <path d="M232.129,61.044C232.334,59.64 232.569,58.976 234.551,59.95C236.344,60.831 237.66,60.682 236.116,61.616C234.476,62.608 235.979,64.15 234.815,63.773C233.651,63.397 233.591,63.776 232.906,62.83C232.304,61.999 231.923,62.448 232.129,61.044Z" style="fill:rgb(86,125,2);"/>
                    <path d="M238.004,28.19C238.21,26.786 238.185,29.007 240.206,28.117C242.226,27.227 240.893,27.959 241.886,29.465C242.879,30.972 241.599,30.596 240.435,30.22C239.271,29.843 239.342,30.173 238.178,30.276C237.014,30.378 237.799,29.594 238.004,28.19Z" style="fill:rgb(86,125,2);"/>
                    <path d="M199.183,97.868C199.388,96.464 199.01,97.484 201.03,96.594C203.05,95.704 203.5,95.166 203.034,96.909C202.895,97.429 203.372,100.014 202.208,99.638C201.043,99.261 201.283,99.535 200.119,99.638C198.955,99.74 198.978,99.272 199.183,97.868Z" style="fill:rgb(86,125,2);"/>
                </g>
            </g>
        </g>
    </g>
</svg>
